<?xml version="1.0" encoding="UTF-8"?>
<svg xmlns="http://www.w3.org/2000/svg" width="217" height="92" viewBox="0 0 217 92">
  <path d="M130.435 29.223h2.734l1.511.002H136.543l.867.002h1.218l.758.002 1.706.002c3.002.005 4.57 2.096 3.718 5.008-.92 3.142-1.995 5.711-2.942 8.845-1.297 4.297-2.19 7.802-3.517 12.091-.996 3.22-3.763 5.248-7.147 5.286-2.089.022-4.18.032-6.269-.01-.759-.015-1.09.255-1.306.986-1.531 5.14-3.108 10.264-4.67 15.395-.334 1.098-.332 1.102-1.48 1.105-1.312.002-2.622.004-3.932-.003-.3 0-.604-.035-1.006-.06.088-.393.131-.694.22-.983 4.2-13.877 8.13-26.392 12.334-40.268.47-1.55.936-3.104 1.427-4.65.155-.492.458-1.409.907-2.751h3.006zm-13.823-.186H118l1.494.003c.341 0 .691.005 1.023.074 2.062.413 3.15 2.123 2.745 4.279-.435 2.32-.481 2.576-2.356 2.59h-.35l-.39-.003a675.855 675.855 0 0 1-7.143-.114l-.898 2.897a2184.39 2184.39 0 0 0-6.559 21.573c-.23.767-.603 1.036-1.39 1.001-1.309-.06-2.62-.012-3.932-.02-.331-.001-.663-.04-1.125-.07.245-.86.445-1.605.67-2.341 2.703-8.894 5.4-17.787 8.13-26.671.216-.704.509-1.769.878-3.195l2.62-.002 1.444-.001h3.751zm61.105-.135c3.115.016 6.232.086 9.348.137.21.003.424.041.803.081-.22.781-.395 1.436-.59 2.085-.36 1.196-.727 2.387-1.095 3.58-.312 1.015-.328 1.065-1.339 1.067h-1.269l-3.61.002h-3.726a144.13 144.13 0 0 0-.833 2.562c-1.535 4.942-3.398 11.327-4.895 16.28-.089.293-.16.592-.287 1.069h9.844c-.05.41.065.614 0 .835-.51 1.735-.68 2.032-1.157 3.776-.193.704-.55.93-1.259.922-3.243-.029-6.958.031-10.201.02-2.917-.01-4.51-2.076-3.691-4.872 1.351-4.607 2.764-9.195 4.154-13.791.848-2.805 1.685-5.614 2.557-8.412 1.075-3.454 3.647-5.36 7.246-5.341zm-14.422-.043c3.112.015 4.658 2.043 3.763 5.03-2.228 7.44-4.497 14.868-6.75 22.3-.435 1.434-.891 2.86-1.295 4.302-.175.619-.51.828-1.146.823-4.181-.034-8.363-.027-12.544-.056-2.163-.015-3.493-.859-3.958-2.482-.283-.994-.103-1.972.193-2.944 1.19-3.91 2.128-6.545 3.304-10.46a6.976 6.976 0 0 1 1.938-3.15c1.378-1.293 2.998-1.987 4.905-1.985 2.184.005 4.369-.02 6.553.014.675.01.893-.111 1.194-.88.302-.77 1.212-3.3 1.472-4.204-.54 0-1.229.025-1.595.024l-9.923-.024c-1.472-.003-1.463-.032-1.041-1.492.826-2.863 2.36-4.06 5.297-4.704a5.87 5.87 0 0 1 1.207-.11c2.809-.009 5.618-.012 8.426-.002zm-85.508.007c1.944.018 3.348 1.15 3.663 2.958.089.504.042 1.067-.088 1.564a114.378 114.378 0 0 1-1.485 5.118c-.08.253-.438.59-.67.594-1.682.016-3.365-.04-5.046-.082-.12-.001-.238-.054-.502-.119.273-.997.834-3.082 1.122-4.143h-5.79l-1.49 4.629c3.218 2.947 5.633 5.158 7.244 6.63.576.526 1.131 1.074 1.708 1.597.36.325.49.668.336 1.16-.817 2.62-1.542 5.27-2.426 7.864-.908 2.659-3.628 4.567-6.466 4.614-2.868.049-5.738.038-8.608.004-2.264-.027-3.631-1.142-3.88-3.13-.063-.51.005-1.066.142-1.566a99.699 99.699 0 0 1 1.49-4.923c.092-.278.482-.64.744-.65 1.713-.052 3.43-.021 5.144-.01.083.002.165.074.332.155-.28 1.001-1.201 3.784-1.53 4.965h1.745c1.34 0 2.682-.02 4.023.008.521.01.799-.172.941-.679.877-3.119 1.756-3.935-.458-6.031-2.42-2.295-4.912-4.515-7.398-6.74-.517-.463-.633-.905-.429-1.558.785-2.499 1.49-5.022 2.295-7.515.89-2.764 3.63-4.71 6.54-4.72 2.932-.01 5.865-.021 8.797.006zm14.057-.037c2.738.137 5.49.023 8.235.03 2.965.006 4.466 1.952 3.665 4.837-.7 2.523-1.486 5.024-2.237 7.533l-.558 1.853c-.091.308-.181.617-.268.927-1.328 4.75-3.23 5.168-6.89 5.168-2.147 0-4.305-.004-6.457-.042-.69-.012-1.012.237-1.185.89-.363 1.376-1.229 3.97-1.687 5.533h12.449c-.39 3.853-2.455 5.038-5.451 5.537-1.19.199-2.423.16-3.637.16-2.183 0-4.366-.019-6.547-.093-2.408-.081-3.99-2.067-3.165-4.87.912-3.112 1.863-6.215 2.801-9.318 1.31-4.33 2.686-8.639 3.918-12.988.812-2.874 3.943-5.31 7.014-5.157zM200.625 18.37c-.9 3.633-2.165 7.003-3.126 10.657h8.347c-.103.513-.143.837-.233 1.151-.444 1.526-.898 3.052-1.351 4.577-.33 1.116-.428 1.21-1.64 1.221-.441.004-1.037.007-1.786.008h-2.03c-.989-.001-2.132-.004-3.43-.008-.4 1.361-.714 2.409-.944 3.142-1.484 4.732-2.9 9.486-4.336 14.232-.08.261-.127.532-.228.961h9.354c-.038.363-.027.581-.085.778-.514 1.735-1.063 3.46-1.548 5.202-.186.671-.557.857-1.216.854-3.306-.026-6.615.001-9.923-.019-2.453-.012-3.99-1.809-3.44-4.219.514-2.246 1.25-4.441 1.917-6.65 3.06-10.121 6.128-20.24 9.195-30.36l.11-.356c.357-1.166.357-1.168 1.533-1.171H200.626zm-43.51 27.944-6.472.013c-.431 1.702-.74 2.823-.925 3.363-.56 1.649-1.22 3.45-1.716 5.12-.074.249-.1.51-.177.904 1.936 0 3.736-.031 5.533.014.729.02 1.05-.267 1.243-.942.59-2.063 1.511-5.18 2.124-7.236.11-.37.26-.755.39-1.236zM138.35 35.37h-6.768c-2.67 8.495-4.522 14.443-5.554 17.845-.065.22-.077.457-.13.774h3.232l2.097-.001c1.139 0 1.15.001 1.48-1.086.609-2.008 1.51-4.823 2.415-7.611l.226-.696.196-.603c1.432-4.399 2.758-8.4 2.806-8.622zm-40.361-.928h-7.228a281.055 281.055 0 0 0-1.564 4.696c-.103.327-.19.659-.283.987-.186.644-.781 3.099-1.001 3.863.47.044.839-.001 1.137 0 1.493.008 3.808-.045 5.3 0 .726.024 1.051-.263 1.235-.945.415-1.531 1.706-6.205 2.153-7.727.074-.25.197-.59.25-.874zm-56.428 3.532c.669.57 1.21 1.012 1.73 1.477 1.65 1.485 3.296 2.959 4.051 5.163.639 1.865.718 3.73.152 5.607-2.52 8.36-5.06 16.711-7.595 25.067-.28.925-.566 1.849-.847 2.773-.118.387-.298.67-.769.669-2.868-.013-5.738-.015-8.608-.027a.433.433 0 0 1-.175-.058l-.143-.067a3.748 3.748 0 0 0-.095-.041l12.299-40.563zm-10.78-7.76c.597.492 1.102.88 1.575 1.306 1.849 1.67 3.678 3.364 5.538 5.022.395.352.314.687.191 1.09-.934 3.039-1.863 6.079-2.792 9.12-1.413 4.62-2.824 9.24-4.24 13.86-.097.32-.227.63-.418 1.158-1.225-1.092-2.297-2.033-3.352-2.995-1.221-1.111-2.406-2.266-3.651-3.35-.411-.36-.422-.683-.28-1.143.915-2.948 1.81-5.901 2.715-8.85 1.434-4.68 2.872-9.357 4.31-14.035.108-.35.236-.693.404-1.183zM25.74 5.412c2.101 2.581 4.187 4.719 6.32 7.073.504.556.62.996.4 1.717A15160.601 15160.601 0 0 0 22.412 47.27c-.444 1.461-.877 2.924-1.323 4.385-.092.305-.203.61-.355 1.052a.436.436 0 0 1-.022.063c-.029-.023-.052-.049-.08-.072-.627-.53-1.145-.954-1.639-1.398-1.643-1.477-3.281-2.944-4.032-5.138-.638-1.858-.716-3.71-.151-5.576 2.51-8.323 5.036-16.632 7.558-24.95.231-.757.466-1.5.697-2.258.285-1.012.573-1.993.878-3 .503-1.667.949-3.676 1.422-4.966z" fill="#251E5B" fill-rule="evenodd"></path>
</svg>
